HIERARCHY
ROOT pelvis
{
	OFFSET 0.00 0.00 0.00
	CHANNELS 6 Xposition Yposition Zposition Xrotation Yrotation Zrotation
	JOINT lfemur
	{
		OFFSET 0.00000 3.26371 0.00000
		CHANNELS 3 Xrotation Yrotation Zrotation
		JOINT ltibia
		{
			OFFSET 0.00000 0.00000 -17.39272
			CHANNELS 3 Xrotation Yrotation Zrotation
			JOINT lfoot
			{
				OFFSET 0.00000 0.00000 -17.72520
				CHANNELS 3 Xrotation Yrotation Zrotation
				JOINT ltoes
				{
					OFFSET 4.21806 0.00000 0.00000
					CHANNELS 3 Xrotation Yrotation Zrotation
				}
			}
		}
	}
	JOINT rfemur
	{
		OFFSET 0.00000 -3.26371 0.00000
		CHANNELS 3 Xrotation Yrotation Zrotation
		JOINT rtibia
		{
			OFFSET 0.00000 0.00000 -17.39272
			CHANNELS 3 Xrotation Yrotation Zrotation
			JOINT rfoot
			{
				OFFSET 0.00000 0.00000 -17.72520
				CHANNELS 3 Xrotation Yrotation Zrotation
				JOINT rtoes
				{
					OFFSET 4.21806 0.00000 0.00000
					CHANNELS 3 Xrotation Yrotation Zrotation
				}
			}
		}
	}
	JOINT thorax
	{
		OFFSET -1.96850 0.00000 6.16593
		CHANNELS 6 Xposition Yposition Zposition Xrotation Yrotation Zrotation
		JOINT head
		{
			OFFSET 0.00000 0.00000 18.21355
			CHANNELS 6 Xposition Yposition Zposition Xrotation Yrotation Zrotation
		}
		JOINT lclavicle
		{
			OFFSET 0.00000 0.00000 15.13875
			CHANNELS 3 Xrotation Yrotation Zrotation
			JOINT lhumerus
			{
				OFFSET 0.00000 7.18963 -1.52650
				CHANNELS 3 Xrotation Yrotation Zrotation
				JOINT lradius
				{
					OFFSET 0.00000 0.00000 -10.12096
					CHANNELS 3 Xrotation Yrotation Zrotation
					JOINT lhand
					{
						OFFSET 0.00000 0.00000 -10.45726
						CHANNELS 3 Xrotation Yrotation Zrotation
					}
				}
			}
		}
		JOINT rclavicle
		{
			OFFSET 0.00000 0.00000 15.13875
			CHANNELS 3 Xrotation Yrotation Zrotation
			JOINT rhumerus
			{
				OFFSET 0.00000 -7.18963 -1.52650
				CHANNELS 3 Xrotation Yrotation Zrotation
				JOINT rradius
				{
					OFFSET 0.00000 0.00000 -10.12096
					CHANNELS 3 Xrotation Yrotation Zrotation
					JOINT rhand
					{
						OFFSET 0.00000 0.00000 -10.45726
						CHANNELS 3 Xrotation Yrotation Zrotation
					}
				}
			}
		}
	}
}
MOTION
Frames: 9
Frame Time: 0.008333
 -57.8542 7.7659 29.0065 8.9400 8.5449 148.3839 24.7988 -13.0885 24.8372 -0.0000 79.2198 0.0000 -0.0000 -24.6353 12.3240 0.0000 -33.0668 -0.0000 -44.4577 -24.0964 -46.4852 -0.0000 60.9605 0.0000 0.0000 10.2578 19.0764 0.0000 -41.6359 -0.0000 -55.8350 5.5880 34.1053 7.5403 12.9780 -3.4933 -57.1206 5.7405 52.6052 3.3023 0.7038 -43.9390 -17.5505 0.0000 -6.5277 42.5066 16.0028 -35.9219 -180.0000 -68.7040 -116.8347 -44.5422 11.6499 -0.0000 14.7036 -0.0000 11.4644 -61.6163 -14.0509 -45.4345 -0.0000 -89.1116 53.0694 -34.9907 8.1446 -0.0000
 -57.8589 7.8357 28.9242 8.9237 8.5654 148.4979 25.1440 -13.1235 24.9546 -0.0000 79.5459 0.0000 -0.0000 -24.6725 11.9732 0.0000 -33.4628 -0.0000 -44.9037 -24.0511 -47.0438 -0.0000 61.5885 0.0000 0.0000 9.9920 19.3204 0.0000 -42.1031 -0.0000 -55.8487 5.6710 34.0234 7.5490 13.0977 -3.8348 -57.1962 5.8755 52.4968 3.2879 0.3551 -43.7604 -17.6783 0.0000 -6.7476 42.3934 16.2858 -35.3779 180.0000 -68.4799 -116.9242 -44.6533 13.3421 -0.0000 14.8590 -0.0000 11.8194 -61.8458 -13.9769 -46.3087 -0.0000 -89.2039 52.3009 -35.1778 8.1452 -0.0000
 -57.8693 7.9070 28.8496 8.9032 8.5707 148.5663 25.4988 -13.1181 25.1276 -0.0000 79.8415 0.0000 0.0000 -24.7505 11.6143 0.0000 -33.7444 -0.0000 -45.2842 -24.0404 -47.4941 -0.0000 62.1837 0.0000 -0.0000 9.5844 19.5461 0.0000 -41.8270 -0.0000 -55.8705 5.7514 33.9462 7.5303 13.2002 -4.1133 -57.2567 5.9879 52.4108 3.3617 0.2825 -43.6029 -17.7270 0.0000 -6.8181 42.3554 16.4527 -35.3337 -180.0000 -68.4606 -117.3407 -44.8543 13.6400 -0.0000 14.9159 -0.0000 12.0295 -61.9298 -14.0414 -46.9429 0.0000 -89.1166 51.7018 -34.5675 7.9514 -0.0000
 -57.8697 7.9738 28.7725 8.8784 8.5616 148.6083 25.8791 -13.1478 25.3516 -0.0000 80.1632 0.0000 -0.0000 -24.7820 11.2881 0.0000 -33.9019 -0.0000 -45.6416 -24.0438 -47.9632 -0.0000 62.7078 0.0000 0.0000 9.1838 19.7741 0.0000 -42.0912 -0.0000 -55.8708 5.8236 33.8777 7.4694 13.3588 -4.3287 -57.3134 6.0852 52.3370 3.5154 0.1951 -43.5224 -17.7164 0.0000 -6.9003 42.3648 16.5716 -35.3969 -180.0000 -68.4421 -117.9611 -45.2840 14.4137 -0.0000 14.8977 -0.0000 12.2404 -61.8821 -14.1209 -47.4503 0.0000 -88.9291 51.2581 -34.3661 7.8028 -0.0000
 -57.8751 8.0412 28.7015 8.8530 8.5277 148.5866 26.2775 -13.1257 25.6347 -0.0000 80.4576 0.0000 0.0000 -24.8595 10.9582 0.0000 -34.1751 -0.0000 -45.9585 -24.1003 -48.3594 -0.0000 63.2264 0.0000 -0.0000 8.7457 19.9805 0.0000 -41.8964 -0.0000 -55.8726 5.8883 33.8128 7.4079 13.4916 -4.4255 -57.3685 6.1696 52.2753 3.6801 0.2230 -43.5421 -17.6455 0.0000 -6.9699 42.4129 16.6323 -35.6684 -180.0000 -68.5479 -118.5752 -45.2480 13.6073 -0.0000 14.8026 -0.0000 12.4019 -61.8192 -14.1300 -47.8694 -0.0000 -88.6279 51.2391 -34.3261 8.0873 -0.0000
 -57.8763 8.1050 28.6397 8.8288 8.4823 148.5806 26.6609 -13.1205 25.9035 -0.0000 80.6999 0.0000 -0.0000 -24.8878 10.6318 0.0000 -34.3651 -0.0000 -46.2363 -24.1354 -48.7522 -0.0000 63.6828 0.0000 -0.0000 8.3796 20.1640 0.0000 -42.0641 -0.0000 -55.8698 5.9458 33.7565 7.3379 13.6289 -4.4456 -57.4206 6.2410 52.2265 3.8652 0.2798 -43.7068 -17.5460 0.0000 -7.0472 42.4981 16.6163 -36.0436 -180.0000 -68.7180 -118.9507 -45.4771 13.4192 -0.0000 14.6865 -0.0000 12.5661 -61.7406 -14.0543 -48.2211 -0.0000 -88.2691 51.0721 -34.2813 8.1763 -0.0000
 -57.8791 8.1641 28.5859 8.8031 8.4331 148.5897 27.0196 -13.1227 26.1604 -0.0000 80.9168 0.0000 0.0000 -24.8766 10.3325 0.0000 -34.6411 -0.0000 -46.4862 -24.1724 -49.0900 -0.0000 64.1288 0.0000 0.0000 7.9872 20.3379 0.0000 -41.9908 -0.0000 -55.8737 5.9993 33.7043 7.3055 13.6971 -4.4061 -57.4721 6.3015 52.1861 3.9981 0.3818 -43.9813 -17.4426 0.0000 -7.0980 42.6210 16.5236 -36.4901 -180.0000 -68.9558 -118.8641 -44.9914 12.4444 -0.0000 14.5233 -0.0000 12.6139 -61.6940 -13.9023 -48.2599 -0.0000 -87.8993 50.9267 -33.9722 8.0306 -0.0000
 -57.8883 8.2207 28.5427 8.7792 8.3883 148.6314 27.3119 -13.1334 26.3436 -0.0000 81.0849 0.0000 -0.0000 -24.8149 10.0888 0.0000 -34.8194 -0.0000 -46.7171 -24.1506 -49.4255 -0.0000 64.4983 0.0000 0.0000 7.7320 20.5353 0.0000 -42.0555 -0.0000 -55.8838 6.0458 33.6555 7.2951 13.7618 -4.3610 -57.5238 6.3569 52.1607 4.1184 0.4677 -44.1893 -17.3572 0.0000 -7.1222 42.7347 16.4641 -36.8806 180.0000 -69.1373 -118.4415 -44.6168 11.7851 -0.0000 14.3882 -0.0000 12.5170 -61.7512 -13.8266 -48.1276 0.0000 -87.5328 50.5599 -33.8691 7.9694 -0.0000
 -57.8909 8.2677 28.5060 8.7435 8.3682 148.7299 27.5219 -13.1875 26.4372 -0.0000 81.2451 0.0000 -0.0000 -24.8144 9.9034 0.0000 -35.0232 -0.0000 -46.8068 -24.2025 -49.4604 -0.0000 64.7906 0.0000 0.0000 7.4326 20.3643 0.0000 -41.9038 -0.0000 -55.8887 6.0888 33.6098 7.2706 13.8426 -4.3450 -57.5689 6.4073 52.1247 4.2096 0.4622 -44.3813 -17.2772 0.0000 -7.1287 42.8510 16.4018 -37.1109 180.0000 -69.2172 -117.8749 -44.7747 12.2184 -0.0000 14.2423 -0.0000 12.3691 -61.8356 -13.7587 -47.8555 -0.0000 -87.1989 50.2349 -34.0925 8.0674 -0.0000
